<svg xmlns="http://www.w3.org/2000/svg" viewBox="0 0 640 360">
<defs>
  <linearGradient id="g" x1="0" y1="0" x2="1" y2="1">
    <stop offset="0" stop-color="#07080b"/>
    <stop offset=".55" stop-color="#0b0d14"/>
    <stop offset="1" stop-color="#ff4f1f" stop-opacity=".18"/>
  </linearGradient>
  <pattern id="grid" width="34" height="34" patternUnits="userSpaceOnUse">
    <path d="M34 0H0V34" fill="none" stroke="#fff" stroke-opacity=".07" stroke-width="1"/>
  </pattern>
  <filter id="glow"><feGaussianBlur stdDeviation="8" result="b"/><feMerge><feMergeNode in="b"/><feMergeNode in="SourceGraphic"/></feMerge></filter>
</defs>
<rect width="640" height="360" fill="url(#g)"/>
<rect width="640" height="360" fill="url(#grid)"/>
<path d="M-30 285 C140 210 250 330 670 115" stroke="#ff4f1f" stroke-width="4" stroke-opacity=".35" fill="none"/>
<path d="M360 0 L640 0 L640 360 L510 360 Z" fill="#ff4f1f" fill-opacity=".05"/>
<g transform="translate(48 86) rotate(-4)">
  <text x="0" y="64" font-family="Impact,Arial Black,sans-serif" font-size="74" font-style="italic" fill="#fff" letter-spacing="-2">BIGODE</text>
  <text x="255" y="112" font-family="Impact,Arial Black,sans-serif" font-size="62" font-style="italic" fill="#ff4f1f" filter="url(#glow)">EXCLUSIVE</text>
</g>
<g opacity=".62">
  <rect x="385" y="95" width="195" height="116" rx="8" fill="#0b0d12" stroke="#2b2f3a"/>
  <rect x="398" y="108" width="169" height="91" rx="4" fill="#11151d"/>
  <rect x="415" y="124" width="62" height="8" rx="4" fill="#ff4f1f" fill-opacity=".8"/>
  <rect x="415" y="144" width="128" height="5" rx="2" fill="#747a89" fill-opacity=".5"/>
  <rect x="415" y="158" width="104" height="5" rx="2" fill="#747a89" fill-opacity=".35"/>
  <rect x="415" y="176" width="48" height="10" rx="4" fill="#ff4f1f" fill-opacity=".45"/>
</g>
<text x="24" y="334" font-family="Arial,sans-serif" font-size="13" fill="#8a8f9b" letter-spacing="2">FIVEM • BIGODE BYPASS</text>
</svg>